<svg width="103" height="35" viewBox="0 0 103 35" fill="none" xmlns="http://www.w3.org/2000/svg">
<g clip-path="url(#clip0_1_42)">
<path d="M57.5588 8.61315C57.24 8.94397 57.0449 9.37444 57.0061 9.83219C56.9674 10.2899 57.0874 10.7471 57.3461 11.1268C57.6047 11.5064 57.9861 11.7855 58.4263 11.9171C58.8664 12.0486 59.3384 12.0246 59.763 11.8492C59.7918 11.6617 59.7288 11.4817 59.703 11.4187C59.6455 11.2787 59.456 11.0394 59.1398 10.7077C59.0553 10.6189 59.0608 10.5507 59.091 10.3484L59.0942 10.3257C59.1147 10.1872 59.1492 10.1052 59.6155 10.0312C59.8525 9.99365 59.9147 10.0882 60.001 10.2194L60.03 10.2624C60.112 10.3824 60.1728 10.4099 60.2645 10.4514C60.3058 10.4702 60.357 10.4939 60.4257 10.5327C60.5887 10.6259 60.5887 10.7312 60.5887 10.9617V10.9879C60.5887 11.0857 60.5792 11.1717 60.5642 11.2464C60.7561 11.0056 60.8898 10.7238 60.9549 10.4229C61.02 10.1221 61.0148 9.81021 60.9397 9.51166C60.8646 9.21311 60.7216 8.93593 60.5218 8.70169C60.3221 8.46744 60.0709 8.28247 59.788 8.16115C59.6498 8.2544 59.46 8.38665 59.3937 8.4774C59.36 8.52365 59.312 8.7604 59.1562 8.7799C59.1157 8.7849 59.061 8.7814 59.003 8.77765C58.8475 8.76765 58.635 8.7539 58.567 8.93865C58.5237 9.05565 58.5162 9.37365 58.656 9.53865C58.6785 9.5649 58.6828 9.61365 58.6675 9.6684C58.6475 9.74015 58.6073 9.7839 58.5945 9.7929C58.5705 9.7789 58.5225 9.72315 58.4897 9.6854C58.4115 9.59415 58.3135 9.4804 58.187 9.4454C58.141 9.43265 58.0905 9.42215 58.0412 9.41165C57.904 9.3829 57.7487 9.35015 57.7125 9.27315C57.686 9.21665 57.6862 9.1389 57.6862 9.0569C57.6862 8.95265 57.6862 8.8349 57.6352 8.72065C57.6175 8.67988 57.5915 8.64326 57.5588 8.61315V8.61315ZM59 12.4999C57.6193 12.4999 56.5 11.3807 56.5 9.9999C56.5 8.61915 57.6193 7.4999 59 7.4999C60.3807 7.4999 61.5 8.61915 61.5 9.9999C61.5 11.3807 60.3807 12.4999 59 12.4999Z" fill="black"/>
</g>
<g clip-path="url(#clip1_1_42)">
<path d="M15.5979 14.6887C15.0667 15.24 14.7415 15.9575 14.6769 16.7204C14.6123 17.4833 14.8124 18.2452 15.2434 18.878C15.6745 19.5108 16.3102 19.9759 17.0438 20.1952C17.7774 20.4144 18.5641 20.3745 19.2717 20.082C19.3196 19.7695 19.2146 19.4695 19.1717 19.3645C19.0758 19.1312 18.76 18.7324 18.2329 18.1795C18.0921 18.0316 18.1012 17.9178 18.1517 17.5807L18.1571 17.5428C18.1912 17.312 18.2487 17.1753 19.0258 17.052C19.4208 16.9895 19.5246 17.147 19.6683 17.3657L19.7167 17.4374C19.8533 17.6374 19.9546 17.6832 20.1075 17.7524C20.1762 17.7837 20.2617 17.8232 20.3762 17.8878C20.6479 18.0432 20.6479 18.2187 20.6479 18.6028V18.6466C20.6479 18.8095 20.6321 18.9528 20.6071 19.0774C20.9268 18.6761 21.1496 18.2065 21.2582 17.705C21.3667 17.2035 21.358 16.6837 21.2328 16.1862C21.1076 15.6886 20.8693 15.2266 20.5364 14.8362C20.2034 14.4458 19.7849 14.1375 19.3133 13.9353C19.0829 14.0907 18.7667 14.3112 18.6562 14.4624C18.6 14.5395 18.52 14.9341 18.2604 14.9666C18.1929 14.9749 18.1017 14.9691 18.005 14.9628C17.7458 14.9462 17.3917 14.9232 17.2783 15.2312C17.2062 15.4262 17.1937 15.9562 17.4267 16.2312C17.4642 16.2749 17.4712 16.3562 17.4458 16.4474C17.4125 16.567 17.3454 16.6399 17.3242 16.6549C17.2842 16.6316 17.2042 16.5387 17.1496 16.4757C17.0192 16.3237 16.8558 16.1341 16.645 16.0757C16.5683 16.0545 16.4842 16.037 16.4021 16.0195C16.1733 15.9716 15.9146 15.917 15.8542 15.7887C15.81 15.6945 15.8104 15.5649 15.8104 15.4282C15.8104 15.2545 15.8104 15.0582 15.7254 14.8678C15.6959 14.7999 15.6524 14.7388 15.5979 14.6887V14.6887ZM18 21.1666C15.6987 21.1666 13.8333 19.3012 13.8333 16.9999C13.8333 14.6987 15.6987 12.8332 18 12.8332C20.3012 12.8332 22.1667 14.6987 22.1667 16.9999C22.1667 19.3012 20.3012 21.1666 18 21.1666Z" fill="#0C5B66"/>
</g>
<path d="M4 6.9999L14.5 10.9999L16.5 6.9999" stroke="black" stroke-width="2" stroke-linecap="round"/>
<circle cx="2" cy="5.9999" r="1.5" fill="white" stroke="black"/>
<path d="M4 6.9999L14.5 10.9999L16.5 6.9999" stroke="black" stroke-width="2" stroke-linecap="round"/>
<circle cx="2" cy="5.9999" r="1.5" fill="white" stroke="black"/>
<line x1="8.40353" y1="5.94034" x2="14.005" y2="8.09055" stroke="black" stroke-width="2"/>
<path d="M4 6.9999L14.5 10.9999L16.5 6.9999" stroke="black" stroke-width="2" stroke-linecap="round"/>
<circle cx="2" cy="5.9999" r="1.5" fill="white" stroke="black"/>
<path d="M4 6.9999L14.5 10.9999L16.5 6.9999" stroke="#0F7494" stroke-width="2" stroke-linecap="round"/>
<circle cx="2" cy="5.9999" r="1.5" fill="white" stroke="black"/>
<line x1="8.40353" y1="5.94034" x2="14.005" y2="8.09055" stroke="#15D3B1" stroke-width="2"/>
<path d="M28.0844 4.02692L24.0136 14.4997L28 16.5266" stroke="black" stroke-width="2" stroke-linecap="round"/>
<circle cx="29.0979" cy="2.03371" r="1.5" transform="rotate(90.3869 29.0979 2.03371)" fill="white" stroke="black"/>
<path d="M28.0844 4.02692L24.0136 14.4997L28 16.5266" stroke="#0F7494" stroke-width="2" stroke-linecap="round"/>
<circle cx="29.0979" cy="2.03371" r="1.5" transform="rotate(90.3869 29.0979 2.03371)" fill="white" stroke="black"/>
<line x1="29.1142" y1="8.4375" x2="26.9262" y2="14.0243" stroke="#15D3B1" stroke-width="2"/>
<path d="M31.5205 26.9999L21 23.0541L19.0207 27.0644" stroke="black" stroke-width="2" stroke-linecap="round"/>
<circle cx="33.5256" cy="27.9897" r="1.5" transform="rotate(179.704 33.5256 27.9897)" fill="white" stroke="black"/>
<path d="M31.5205 26.9999L21 23.0541L19.0207 27.0644" stroke="black" stroke-width="2" stroke-linecap="round"/>
<circle cx="33.5256" cy="27.9897" r="1.5" transform="rotate(179.704 33.5256 27.9897)" fill="white" stroke="black"/>
<line x1="27.1223" y1="28.0823" x2="21.5098" y2="25.961" stroke="black" stroke-width="2"/>
<path d="M31.5205 26.9999L21 23.0541L19.0207 27.0644" stroke="black" stroke-width="2" stroke-linecap="round"/>
<circle cx="33.5256" cy="27.9897" r="1.5" transform="rotate(179.704 33.5256 27.9897)" fill="white" stroke="black"/>
<path d="M31.5205 26.9999L21 23.0541L19.0207 27.0644" stroke="#0C5B66" stroke-width="2" stroke-linecap="round"/>
<circle cx="33.5256" cy="27.9897" r="1.5" transform="rotate(179.704 33.5256 27.9897)" fill="white" stroke="black"/>
<line x1="27.1223" y1="28.0823" x2="21.5098" y2="25.961" stroke="#15D3B1" stroke-width="2"/>
<path d="M8.61465 30.6826L12.0904 19.9976L7.99643 18.1979" stroke="black" stroke-width="2" stroke-linecap="round"/>
<circle cx="7.7148" cy="32.7296" r="1.5" transform="rotate(-92.8349 7.7148 32.7296)" fill="white" stroke="black"/>
<path d="M8.61465 30.6826L12.0904 19.9976L7.99643 18.1979" stroke="#0F7494" stroke-width="2" stroke-linecap="round"/>
<circle cx="7.7148" cy="32.7296" r="1.5" transform="rotate(-92.8349 7.7148 32.7296)" fill="white" stroke="black"/>
<line x1="7.33861" y1="26.3368" x2="9.20915" y2="20.6359" stroke="#15D3B1" stroke-width="2"/>
<path d="M43.0906 22.1119C42.3439 22.1119 41.6719 21.9839 41.0746 21.7279C40.4772 21.4612 40.0079 21.0879 39.6666 20.6079C39.3252 20.1279 39.1546 19.5679 39.1546 18.9279H41.1066C41.1492 19.4079 41.3359 19.8026 41.6666 20.1119C42.0079 20.4212 42.4826 20.5759 43.0906 20.5759C43.7199 20.5759 44.2106 20.4266 44.5626 20.1279C44.9146 19.8186 45.0906 19.4239 45.0906 18.9439C45.0906 18.5706 44.9786 18.2666 44.7546 18.0319C44.5412 17.7972 44.2692 17.6159 43.9386 17.4879C43.6186 17.3599 43.1706 17.2212 42.5946 17.0719C41.8692 16.8799 41.2772 16.6879 40.8186 16.4959C40.3706 16.2932 39.9866 15.9839 39.6666 15.5679C39.3466 15.1519 39.1866 14.5972 39.1866 13.9039C39.1866 13.2639 39.3466 12.7039 39.6666 12.2239C39.9866 11.7439 40.4346 11.3759 41.0106 11.1199C41.5866 10.8639 42.2532 10.7359 43.0106 10.7359C44.0879 10.7359 44.9679 11.0079 45.6506 11.5519C46.3439 12.0852 46.7279 12.8212 46.8026 13.7599H44.7866C44.7546 13.3546 44.5626 13.0079 44.2106 12.7199C43.8586 12.4319 43.3946 12.2879 42.8186 12.2879C42.2959 12.2879 41.8692 12.4212 41.5386 12.6879C41.2079 12.9546 41.0426 13.3386 41.0426 13.8399C41.0426 14.1812 41.1439 14.4639 41.3466 14.6879C41.5599 14.9012 41.8266 15.0719 42.1466 15.1999C42.4666 15.3279 42.9039 15.4666 43.4586 15.6159C44.1946 15.8186 44.7919 16.0212 45.2506 16.2239C45.7199 16.4266 46.1146 16.7412 46.4346 17.1679C46.7652 17.5839 46.9306 18.1439 46.9306 18.8479C46.9306 19.4132 46.7759 19.9466 46.4666 20.4479C46.1679 20.9492 45.7252 21.3546 45.1386 21.6639C44.5626 21.9626 43.8799 22.1119 43.0906 22.1119ZM52.5708 17.5999L56.6348 21.9999H54.1708L50.9068 18.2079V21.9999H49.0828V10.1599H50.9068V17.0399L54.1068 13.1839H56.6348L52.5708 17.5999ZM58.8702 12.0159C58.5395 12.0159 58.2622 11.9039 58.0382 11.6799C57.8142 11.4559 57.7022 11.1786 57.7022 10.8479C57.7022 10.5172 57.8142 10.2399 58.0382 10.0159C58.2622 9.7919 58.5395 9.6799 58.8702 9.6799C59.1902 9.6799 59.4622 9.7919 59.6862 10.0159C59.9102 10.2399 60.0222 10.5172 60.0222 10.8479C60.0222 11.1786 59.9102 11.4559 59.6862 11.6799C59.4622 11.9039 59.1902 12.0159 58.8702 12.0159ZM59.7662 13.1839V21.9999H57.9422V13.1839H59.7662ZM64.2889 14.6719V19.5519C64.2889 19.8826 64.3636 20.1226 64.5129 20.2719C64.6729 20.4106 64.9396 20.4799 65.3129 20.4799H66.4329V21.9999H64.9929C64.1716 21.9999 63.5423 21.8079 63.1049 21.4239C62.6676 21.0399 62.4489 20.4159 62.4489 19.5519V14.6719H61.4089V13.1839H62.4489V10.9919H64.2889V13.1839H66.4329V14.6719H64.2889ZM76.1941 17.3759C76.1941 17.7066 76.1727 18.0052 76.1301 18.2719H69.3941C69.4474 18.9759 69.7087 19.5412 70.1781 19.9679C70.6474 20.3946 71.2234 20.6079 71.9061 20.6079C72.8874 20.6079 73.5807 20.1972 73.9861 19.3759H75.9541C75.6874 20.1866 75.2021 20.8532 74.4981 21.3759C73.8047 21.8879 72.9407 22.1439 71.9061 22.1439C71.0634 22.1439 70.3061 21.9572 69.6341 21.5839C68.9727 21.1999 68.4501 20.6666 68.0661 19.9839C67.6927 19.2906 67.5061 18.4906 67.5061 17.5839C67.5061 16.6772 67.6874 15.8826 68.0501 15.1999C68.4234 14.5066 68.9407 13.9732 69.6021 13.5999C70.2741 13.2266 71.0421 13.0399 71.9061 13.0399C72.7381 13.0399 73.4794 13.2212 74.1301 13.5839C74.7807 13.9466 75.2874 14.4586 75.6501 15.1199C76.0127 15.7706 76.1941 16.5226 76.1941 17.3759ZM74.2901 16.7999C74.2794 16.1279 74.0394 15.5892 73.5701 15.1839C73.1007 14.7786 72.5194 14.5759 71.8261 14.5759C71.1967 14.5759 70.6581 14.7786 70.2101 15.1839C69.7621 15.5786 69.4954 16.1172 69.4101 16.7999H74.2901ZM77.3811 17.5839C77.3811 16.6772 77.5624 15.8826 77.9251 15.1999C78.2984 14.5066 78.8104 13.9732 79.4611 13.5999C80.1117 13.2266 80.8584 13.0399 81.7011 13.0399C82.7677 13.0399 83.6477 13.2959 84.3411 13.8079C85.0451 14.3092 85.5197 15.0292 85.7651 15.9679H83.7971C83.6371 15.5306 83.3811 15.1892 83.0291 14.9439C82.6771 14.6986 82.2344 14.5759 81.7011 14.5759C80.9544 14.5759 80.3571 14.8426 79.9091 15.3759C79.4717 15.8986 79.2531 16.6346 79.2531 17.5839C79.2531 18.5332 79.4717 19.2746 79.9091 19.8079C80.3571 20.3412 80.9544 20.6079 81.7011 20.6079C82.7571 20.6079 83.4557 20.1439 83.7971 19.2159H85.7651C85.5091 20.1119 85.0291 20.8266 84.3251 21.3599C83.6211 21.8826 82.7464 22.1439 81.7011 22.1439C80.8584 22.1439 80.1117 21.9572 79.4611 21.5839C78.8104 21.1999 78.2984 20.6666 77.9251 19.9839C77.5624 19.2906 77.3811 18.4906 77.3811 17.5839ZM92.1428 13.0399C92.8148 13.0399 93.4121 13.1839 93.9348 13.4719C94.4681 13.7599 94.8841 14.1866 95.1828 14.7519C95.4921 15.3172 95.6468 15.9999 95.6468 16.7999V21.9999H93.8388V17.0719C93.8388 16.2826 93.6415 15.6799 93.2468 15.2639C92.8521 14.8372 92.3135 14.6239 91.6308 14.6239C90.9481 14.6239 90.4041 14.8372 89.9988 15.2639C89.6041 15.6799 89.4068 16.2826 89.4068 17.0719V21.9999H87.5828V10.1599H89.4068V14.2079C89.7161 13.8346 90.1055 13.5466 90.5748 13.3439C91.0548 13.1412 91.5775 13.0399 92.1428 13.0399Z" fill="black"/>
<defs>
<clipPath id="clip0_1_42">
<rect width="6" height="6" fill="white" transform="translate(56 6.9999)"/>
</clipPath>
<clipPath id="clip1_1_42">
<rect width="10" height="10" fill="white" transform="translate(13 11.9999)"/>
</clipPath>
</defs>
</svg>
